<svg
  xmlns="http://www.w3.org/2000/svg"
  viewBox="0 0 300 300">
  <g
    transform="translate(-233,-386)">
    <path
      style="fill:#000080;stroke-width:1"
      d="m 399,507 c -15,4 -1,56 5,27 -0,-8 3,-25 -5,-27 z m -37,-9 c 22,-1 12,31 -2,38 -8,6 -3,7 4,6 7,-3 13,3 9,10 h -32 c -0,-8 3,-16 8,-20 5,-6 18,-10 13,-22 -8,-7 -25,10 -20,-9 4,-1 13,-1 18,-2 z m 38,0 c 19,-0 22,36 11,51 -17,15 -34,-14 -28,-36 1,-9 9,-16 17,-15 z M 506,620 c -40,5 -76,16 -117,22 -0,12 -3,19 -2,32 1,3 -2,13 3,10 39,-22 77,-42 116,-64 z m -247,-0 c 39,22 77,42 117,64 3,-1 0,-7 0,-12 -0,-11 -5,-21 -6,-32 -15,-3 -24,-6 -40,-9 -23,-3 -47,-6 -71,-10 z m 31,-126 c -13,40 -23,72 -37,113 2,4 2,2 7,4 36,5 71,12 108,17 0,-4 -0,-1 -2,-5 C 341,579 316,536 290,493 Z m 175,-1 c -27,48 -48,86 -75,134 24,-2 43,-2 67,-5 19,-2 34,-6 54,-9 -0,-6 -0,-11 -2,-17 -14,-35 -29,-65 -43,-101 z M 454,486 c -55,0 -98,1 -153,1 27,47 49,84 77,131 4,1 4,-1 7,-5 24,-43 46,-83 70,-126 0,-0 -1,-0 -1,-0 z M 252,466 c -1,43 -2,86 -4,130 12,-38 22,-73 35,-111 -11,-5 -19,-12 -31,-18 z m 261,-3 c -13,5 -25,14 -39,20 -1,4 1,8 2,13 13,33 26,67 40,101 -1,-45 -2,-90 -3,-135 l -0,-0 z M 361,391 c -35,23 -71,46 -106,69 11,4 21,8 32,12 16,-18 33,-35 50,-54 7,-9 15,-18 23,-28 z m 33,-3 73,85 c 4,1 9,-1 14,-3 8,-4 18,-7 27,-12 -20,-13 -42,-25 -63,-38 -17,-10 -34,-20 -51,-30 z m -16,-2 c -6,4 -10,12 -16,18 -21,26 -38,45 -60,72 16,0 29,1 47,1 36,-0 69,-2 106,-2 2,-2 -2,-6 -4,-10 -23,-28 -47,-50 -70,-78 l -1,-0 z" />
  </g>
</svg>
