<svg xmlns="http://www.w3.org/2000/svg" version="1.2" baseProfile="tiny" viewBox="0 0 24 24">
<path d="m 23.383897,5.7691592 a 1.6956367,1.6956367 0 0 0 -2.400031,0 5.5112437,5.5112437 0 0 1 -7.783974,0 8.9110038,8.9110038 0 0 0 -12.58403436,0 A 1.6970777,1.6970777 0 1 0 3.015888,8.1691895 C 3.6506909,7.5343866 4.4077019,7.1100531 5.210541,6.8520583 V 20.137092 a 1.6973341,1.6973341 0 1 0 3.3946681,0 V 6.8537556 a 5.4144957,5.4144957 0 0 1 2.1946529,1.3154339 8.8634785,8.8634785 0 0 0 4.594683,2.4390695 v 9.528833 a 1.6973341,1.6973341 0 1 0 3.394668,0 v -9.528833 a 8.8515971,8.8515971 0 0 0 4.594684,-2.4390695 1.6956367,1.6956367 0 0 0 0,-2.4000303 z"/></svg>