<svg
  xmlns="http://www.w3.org/2000/svg"
  width="7.5mm"
  height="6.0mm"
  viewBox="0 0 7.5 6.0">
  <g transform="translate(-0.51845055,-0.23718425)" style="fill:#c8c8c8;fill-opacity:0.75;stroke-width:0.1">
    <path d="m 4.10,2.69 c 2.36e-5,-3.35e-5 -0.25,0.76 5.4e-5,-1.112e-4 C 4.42,1.75 4.11,0.78 3.37,0.39 2.60,-0.00 1.69,0.38 1.32,1.25 0.97,2.10 1.45,3.13 2.08,3.41 2.21,3.52 1.17,4.82 0.57,5.22 c -0.04,0.03 -0.06,0.09 -0.04,0.14 0.07,0.30 0.18,0.60 0.30,0.85 0.02,0.01 0.04,0.01 0.07,0.00 C 1.77,5.93 3.55,4.30 4.10,2.69 c 0.52,-1.52 2.61e-5,-2.25e-5 3.6e-5,-3.67e-5 z"/>
    <path d="m 7.78,2.69 c 2.35e-5,-3.35e-5 -0.25,0.76 5.39e-5,-1.112e-4 C 8.10,1.75 7.80,0.78 7.05,0.39 6.29,-0.00 5.37,0.38 5.01,1.25 4.66,2.10 5.13,3.13 5.77,3.41 5.89,3.52 4.85,4.82 4.25,5.22 c -0.04,0.03 -0.06,0.09 -0.04,0.14 0.07,0.30 0.18,0.60 0.30,0.85 0.02,0.01 0.04,0.01 0.07,0.00 0.87,-0.29 2.65,-1.92 3.20,-3.53 0.52,-1.52 2.61e-5,-2.26e-5 3.6e-5,-3.68e-5 z"/>
  </g>
</svg>
