<?xml version="1.0" encoding="UTF-8" standalone="no"?>
<svg
   xmlns:svg="http://www.w3.org/2000/svg"
   xmlns="http://www.w3.org/2000/svg"
   xmlns:sodipodi="http://sodipodi.sourceforge.net/DTD/sodipodi-0.dtd"
   width="7.5mm"
   height="6.0mm"
   viewBox="0 0 7.5 6.0"
   sodipodi:docname="quote.svg">
  <g transform="translate(-0.51845055,-0.23718425)" style="fill:#c8c8c8;fill-opacity:0.78431373;stroke-width:0.11528027">
    <path d="m 4.1013401,2.6988613 c 2.36e-5,-3.35e-5 -0.2593541,0.7619389 5.4e-5,-1.112e-4 C 4.4232436,1.7532693 4.1166808,0.78424094 3.372494,0.39480907 2.6086682,-0.00489846 1.6913631,0.38193495 1.3276459,1.2572509 0.97676973,2.1016538 1.4528385,3.1323638 2.0867712,3.4147733 2.2105046,3.5263127 1.1720256,4.8228526 0.57259656,5.227074 c -0.045205,0.030484 -0.0653316,0.092962 -0.0479286,0.1484698 0.0795062,0.302698 0.18750573,0.6038078 0.3007267,0.8505272 0.0228455,0.011958 0.0494618,0.014737 0.0754447,0.00603 C 1.7739703,5.9395806 3.552824,4.3092745 4.1013041,2.698898 c 0.5209147,-1.5294417 2.61e-5,-2.25e-5 3.6e-5,-3.67e-5 z"/>
    <path d="m 7.7869614,2.6988613 c 2.35e-5,-3.35e-5 -0.2593542,0.7619389 5.39e-5,-1.112e-4 C 8.1088648,1.7532693 7.8023021,0.78424094 7.0581153,0.39480907 6.2942894,-0.00489846 5.3769843,0.38193495 5.0132672,1.2572509 4.662391,2.1016538 5.1384597,3.1323638 5.7723924,3.4147733 5.8961258,3.5263127 4.8576468,4.8228526 4.2582179,5.227074 c -0.045204,0.030484 -0.065331,0.092962 -0.047928,0.1484698 0.079507,0.302698 0.1875057,0.6038078 0.3007267,0.8505272 0.022846,0.011958 0.049462,0.014737 0.075445,0.00603 0.8731308,-0.2925228 2.6519845,-1.922829 3.2004646,-3.5332054 0.5209147,-1.5294417 2.61e-5,-2.26e-5 3.6e-5,-3.68e-5 z"/>
  </g>
</svg>
